<svg xmlns="http://www.w3.org/2000/svg" xmlns:xlink="http://www.w3.org/1999/xlink" x="0px" y="0px" width="20px" height="25px"
	 fill="white" viewBox="0 0 502.624 502.624" style="enable-background:new 0 0 502.624 502.624;" xml:space="preserve">
<g>
	<g>
		<g>
			<rect y="123.312" width="32" height="32"/>
			<rect x="64" y="123.312" width="32" height="32"/>
			<path d="M88,347.312H64v32h24c54.417-0.051,106.33-22.877,143.152-62.944l-23.584-21.632
				C176.813,328.204,133.453,347.27,88,347.312z"/>
			<rect y="347.312" width="32" height="32"/>
			<path d="M404.688,310.624l33.056,33.056c-62.56-10.43-119.22-43.177-159.488-92.176c40.141-48.979,96.681-81.74,159.136-92.208
				L404.688,192l22.624,22.624l75.312-75.312L427.312,64l-22.624,22.624l39.04,39.04c-71.65,9.142-137.45,44.271-184.912,98.72
				c-1.136-1.824-2.352-3.568-3.44-5.424l-20.32-34.48c-22.418-37.824-63.087-61.061-107.056-61.168v32
				c32.65,0.073,62.85,17.331,79.488,45.424l20.32,34.48c46.256,78.02,125.926,130.33,215.904,141.76L404.688,416l22.624,22.624
				l75.312-75.312L427.312,288L404.688,310.624z"/>
		</g>
	</g>
</g>
</svg>
